<?xml version="1.0" standalone="no"?>
<!DOCTYPE svg PUBLIC "-//W3C//DTD SVG 20010904//EN"
 "http://www.w3.org/TR/2001/REC-SVG-20010904/DTD/svg10.dtd">
<svg version="1.0" xmlns="http://www.w3.org/2000/svg"
 width="350.000000pt" height="350.000000pt" viewBox="0 0 350.000000 350.000000"
 preserveAspectRatio="xMidYMid meet">
<metadata>
Created by potrace 1.11, written by Peter Selinger 2001-2013
</metadata>
<g transform="translate(0.000000,350.000000) scale(0.100000,-0.100000)"
fill="#000000" stroke="none">
<path d="M1380 3393 c-1 -19 356 -1853 360 -1853 4 0 302 1833 301 1853 -1 9
-661 9 -661 0z"/>
<path d="M600 1650 l0 -1490 266 0 266 0 -6 312 c-8 431 -16 1705 -11 1693 2
-5 90 -437 195 -960 105 -522 196 -971 201 -997 l11 -48 207 0 207 0 208 1003
c115 551 211 1004 213 1007 7 6 -5 -1486 -13 -1787 l-7 -223 287 0 286 0 0
1490 0 1490 -384 0 c-298 0 -385 -3 -388 -12 -3 -7 -92 -437 -199 -955 -107
-519 -196 -943 -199 -943 -3 0 -95 424 -204 943 -110 518 -202 948 -204 955
-3 9 -86 12 -368 12 l-364 0 0 -1490z"/>
</g>
</svg>
